<svg width="38" height="38" viewBox="0 0 38 38" fill="none" xmlns="http://www.w3.org/2000/svg">
<g clip-path="url(#clip0)">
<path d="M18.7743 37.5465C29.1424 37.5465 37.5475 29.1414 37.5475 18.7733C37.5475 8.40507 29.1424 0 18.7743 0C8.40606 0 0.000976562 8.40507 0.000976562 18.7733C0.000976562 29.1414 8.40606 37.5465 18.7743 37.5465Z" fill="#FFE17D"/>
<path d="M21.4985 34.8214C11.1303 34.8214 2.72525 26.4163 2.72525 16.0481C2.72525 11.5582 4.30345 7.43802 6.93281 4.20755C2.7034 7.6498 0.00012207 12.895 0.00012207 18.7732C0.00012207 29.1414 8.40519 37.5465 18.7734 37.5465C24.6517 37.5465 29.8969 34.8432 33.3392 30.6137C30.1087 33.2431 25.9885 34.8214 21.4985 34.8214Z" fill="#FFD164"/>
<path d="M13.3231 37.5465C13.9892 37.5465 14.5343 37.0015 14.5343 36.3353C14.5343 35.6692 13.9892 35.1242 13.3231 35.1242H13.9287C14.5948 35.1242 15.1398 34.5792 15.1398 33.913C15.1398 33.2468 14.5948 32.7018 13.9287 32.7018H14.5343C15.2004 32.7018 15.7454 32.1568 15.7454 31.4907C15.7454 30.8245 15.2004 30.2795 14.5343 30.2795H21.1958C21.8647 30.2795 22.4069 29.7372 22.4069 29.0683C22.4069 28.3994 21.8646 27.8572 21.1958 27.8572H10.2952C9.29182 27.8572 8.47841 27.0437 8.47841 26.0404V22.4069C8.47841 21.738 7.93612 21.1957 7.26725 21.1957C6.5983 21.1957 6.05608 21.738 6.05608 22.4069V25.3715C6.05608 26.1965 5.77528 26.997 5.25983 27.6413L4.69531 28.3469C4.00811 29.206 3.63367 30.2733 3.63367 31.3734V33.9131C3.63367 35.9198 5.26049 37.5466 7.26717 37.5466H13.3231V37.5465Z" fill="#FFD164"/>
<path d="M14.5342 36.3353H13.323H7.26711C5.93142 36.3353 4.84477 35.2487 4.84477 33.913V31.3733C4.84477 30.5513 5.12755 29.7452 5.64095 29.1035L6.20554 28.3978C6.89011 27.5421 7.26711 26.4673 7.26711 25.3714V21.1957C6.59824 21.1957 6.05594 21.738 6.05594 22.4068V25.3714C6.05594 26.1965 5.77515 26.997 5.25977 27.6413L4.69525 28.3469C4.00804 29.2059 3.63361 30.2733 3.63361 31.3733V33.9131C3.63361 35.9198 5.26035 37.5466 7.26711 37.5466H13.323C13.9891 37.5465 14.5342 37.0015 14.5342 36.3353Z" fill="#FFC350"/>
<path d="M22.4069 29.0683H13.9286C13.5941 29.0683 13.323 29.3394 13.323 29.6738C13.323 30.0082 13.5941 30.2794 13.9286 30.2794H14.5342H21.1957C21.8646 30.2794 22.4069 29.7372 22.4069 29.0683Z" fill="#FFC350"/>
<path d="M12.7173 32.0962C12.7173 32.4306 12.9885 32.7018 13.3229 32.7018H13.9285H14.5341C15.2003 32.7018 15.7453 32.1568 15.7453 31.4906H13.3229C12.9885 31.4906 12.7173 31.7617 12.7173 32.0962Z" fill="#FFC350"/>
<path d="M12.1117 34.5186C12.1117 34.853 12.3828 35.1242 12.7173 35.1242H13.3229H13.9284C14.5946 35.1242 15.1396 34.5792 15.1396 33.913H12.7173C12.3828 33.913 12.1117 34.1841 12.1117 34.5186Z" fill="#FFC350"/>
<path d="M21.8 24.9805C21.6859 24.9805 21.5699 24.9545 21.4605 24.8995C21.4191 24.8788 17.2669 22.8149 12.6771 22.7095C12.259 22.7001 11.9278 22.3535 11.9373 21.9354C11.9467 21.5176 12.2939 21.1714 12.7114 21.1962C17.6531 21.3094 21.9614 23.4565 22.1424 23.5479C22.5156 23.736 22.6652 24.191 22.4771 24.5642C22.3441 24.8283 22.0773 24.9805 21.8 24.9805Z" fill="#AA7346"/>
<path d="M13.9279 9.84084C13.7629 9.84084 13.5968 9.78702 13.4578 9.67643C13.3437 9.58682 10.7397 7.58849 7.60537 9.1554C7.23277 9.34255 6.77627 9.19031 6.58993 8.81682C6.40308 8.44275 6.55444 7.9883 6.9288 7.80108C10.9491 5.78919 14.2627 8.38122 14.4017 8.49269C14.7281 8.75375 14.7807 9.23013 14.5199 9.5566C14.3703 9.74353 14.1503 9.84084 13.9279 9.84084Z" fill="#AA7346"/>
<path d="M22.4061 11.0523C22.0524 11.0523 21.7367 10.8033 21.6645 10.4435C21.5823 10.0336 21.8484 9.63477 22.2583 9.55286L28.3142 8.34169C28.7264 8.25978 29.1226 8.52532 29.2048 8.93547C29.287 9.34533 29.0209 9.74418 28.611 9.8261L22.5551 11.0373C22.5049 11.0472 22.4553 11.0523 22.4061 11.0523Z" fill="#AA7346"/>
<path d="M11.1472 15.2546C10.3173 15.1523 9.72753 14.3966 9.82983 13.5668L9.97803 12.3647C10.0803 11.5348 10.836 10.945 11.6659 11.0473C12.4957 11.1496 13.0855 11.9053 12.9832 12.7352L12.835 13.9372C12.7327 14.7671 11.977 15.3569 11.1472 15.2546Z" fill="#7D5046"/>
<path d="M11.6658 11.0473C11.5628 11.0346 11.4611 11.0328 11.3615 11.0406L11.1059 13.1139C11.0445 13.6119 11.3983 14.0653 11.8962 14.1267C12.3942 14.188 12.8476 13.8342 12.909 13.3363L12.9831 12.7352C13.0854 11.9053 12.4957 11.1496 11.6658 11.0473Z" fill="#9C6846"/>
<path d="M23.8266 16.5793C22.9968 16.477 22.407 15.7213 22.5093 14.8915L22.6575 13.6894C22.7598 12.8595 23.5155 12.2697 24.3453 12.372C25.1751 12.4743 25.765 13.23 25.6627 14.0599L25.5145 15.2619C25.4122 16.0919 24.6565 16.6817 23.8266 16.5793Z" fill="#7D5046"/>
<path d="M24.3453 12.372C24.2424 12.3593 24.1406 12.3575 24.0411 12.3653L23.7854 14.4386C23.724 14.9366 24.0779 15.39 24.5758 15.4514C25.0737 15.5127 25.5272 15.1589 25.5885 14.661L25.6627 14.0599C25.765 13.23 25.1752 12.4744 24.3453 12.372Z" fill="#9C6846"/>
</g>
<defs>
<clipPath id="clip0">
<rect width="37.5466" height="37.5466" fill="white"/>
</clipPath>
</defs>
</svg>
